<svg width="39" height="10" viewBox="0 0 39 10" fill="none" xmlns="http://www.w3.org/2000/svg">
<path d="M0.176 9V0.599999H3.68C4.216 0.599999 4.668 0.68 5.036 0.84C5.404 1 5.68 1.24 5.864 1.56C6.056 1.872 6.152 2.256 6.152 2.712C6.152 3.168 6.024 3.556 5.768 3.876C5.52 4.196 5.172 4.416 4.724 4.536V4.296C5.1 4.376 5.428 4.52 5.708 4.728C5.988 4.928 6.204 5.18 6.356 5.484C6.516 5.788 6.596 6.136 6.596 6.528C6.596 6.928 6.532 7.284 6.404 7.596C6.284 7.9 6.1 8.156 5.852 8.364C5.612 8.572 5.32 8.732 4.976 8.844C4.632 8.948 4.24 9 3.8 9H0.176ZM1.472 7.752H3.728C4.056 7.752 4.332 7.704 4.556 7.608C4.788 7.512 4.964 7.372 5.084 7.188C5.212 6.996 5.276 6.768 5.276 6.504C5.276 6.256 5.208 6.044 5.072 5.868C4.944 5.692 4.76 5.56 4.52 5.472C4.28 5.376 3.996 5.328 3.668 5.328H1.472V7.752ZM1.472 4.08H3.608C3.848 4.08 4.06 4.032 4.244 3.936C4.436 3.84 4.584 3.708 4.688 3.54C4.8 3.372 4.856 3.18 4.856 2.964C4.856 2.604 4.736 2.328 4.496 2.136C4.256 1.944 3.912 1.848 3.464 1.848H1.472V4.08ZM8.03197 9V2.7H9.27997V4.68L9.15997 4.2C9.24797 3.896 9.39597 3.62 9.60397 3.372C9.81997 3.124 10.064 2.928 10.336 2.784C10.616 2.64 10.904 2.568 11.2 2.568C11.336 2.568 11.464 2.58 11.584 2.604C11.712 2.628 11.812 2.656 11.884 2.688L11.56 4.032C11.464 3.992 11.356 3.96 11.236 3.936C11.124 3.904 11.012 3.888 10.9 3.888C10.684 3.888 10.476 3.932 10.276 4.02C10.084 4.1 9.91197 4.216 9.75997 4.368C9.61597 4.512 9.49997 4.684 9.41197 4.884C9.32397 5.076 9.27997 5.288 9.27997 5.52V9H8.03197ZM15.5423 9.12C14.8943 9.12 14.3183 8.984 13.8143 8.712C13.3183 8.432 12.9263 8.052 12.6383 7.572C12.3583 7.092 12.2183 6.54 12.2183 5.916C12.2183 5.42 12.2983 4.968 12.4583 4.56C12.6183 4.152 12.8383 3.8 13.1183 3.504C13.4063 3.2 13.7463 2.968 14.1383 2.808C14.5383 2.64 14.9703 2.556 15.4343 2.556C15.8423 2.556 16.2223 2.636 16.5743 2.796C16.9263 2.948 17.2303 3.16 17.4863 3.432C17.7503 3.704 17.9503 4.028 18.0863 4.404C18.2303 4.772 18.2983 5.176 18.2903 5.616L18.2783 6.144H13.1303L12.8543 5.16H17.2103L17.0303 5.364V5.076C17.0063 4.812 16.9183 4.576 16.7663 4.368C16.6143 4.16 16.4223 3.996 16.1903 3.876C15.9583 3.756 15.7063 3.696 15.4343 3.696C15.0023 3.696 14.6383 3.78 14.3423 3.948C14.0463 4.108 13.8223 4.348 13.6703 4.668C13.5183 4.98 13.4423 5.368 13.4423 5.832C13.4423 6.272 13.5343 6.656 13.7183 6.984C13.9023 7.304 14.1623 7.552 14.4983 7.728C14.8343 7.904 15.2223 7.992 15.6623 7.992C15.9743 7.992 16.2623 7.94 16.5263 7.836C16.7983 7.732 17.0903 7.544 17.4023 7.272L18.0263 8.148C17.8343 8.34 17.5983 8.508 17.3183 8.652C17.0463 8.796 16.7543 8.912 16.4423 9C16.1383 9.08 15.8383 9.12 15.5423 9.12ZM22.5735 9.12C21.9255 9.12 21.3495 8.984 20.8455 8.712C20.3495 8.432 19.9575 8.052 19.6695 7.572C19.3895 7.092 19.2495 6.54 19.2495 5.916C19.2495 5.42 19.3295 4.968 19.4895 4.56C19.6495 4.152 19.8695 3.8 20.1495 3.504C20.4375 3.2 20.7775 2.968 21.1695 2.808C21.5695 2.64 22.0015 2.556 22.4655 2.556C22.8735 2.556 23.2535 2.636 23.6055 2.796C23.9575 2.948 24.2615 3.16 24.5175 3.432C24.7815 3.704 24.9815 4.028 25.1175 4.404C25.2615 4.772 25.3295 5.176 25.3215 5.616L25.3095 6.144H20.1615L19.8855 5.16H24.2415L24.0615 5.364V5.076C24.0375 4.812 23.9495 4.576 23.7975 4.368C23.6455 4.16 23.4535 3.996 23.2215 3.876C22.9895 3.756 22.7375 3.696 22.4655 3.696C22.0335 3.696 21.6695 3.78 21.3735 3.948C21.0775 4.108 20.8535 4.348 20.7015 4.668C20.5495 4.98 20.4735 5.368 20.4735 5.832C20.4735 6.272 20.5655 6.656 20.7495 6.984C20.9335 7.304 21.1935 7.552 21.5295 7.728C21.8655 7.904 22.2535 7.992 22.6935 7.992C23.0055 7.992 23.2935 7.94 23.5575 7.836C23.8295 7.732 24.1215 7.544 24.4335 7.272L25.0575 8.148C24.8655 8.34 24.6295 8.508 24.3495 8.652C24.0775 8.796 23.7855 8.912 23.4735 9C23.1695 9.08 22.8695 9.12 22.5735 9.12ZM26.4008 9V7.968L29.6528 3.624V3.768H26.4008V2.7H30.9968V3.708L27.7928 7.992L27.7448 7.932H31.0688V9H26.4008ZM35.3001 9.12C34.6521 9.12 34.0761 8.984 33.5721 8.712C33.0761 8.432 32.6841 8.052 32.3961 7.572C32.1161 7.092 31.9761 6.54 31.9761 5.916C31.9761 5.42 32.0561 4.968 32.2161 4.56C32.3761 4.152 32.5961 3.8 32.8761 3.504C33.1641 3.2 33.5041 2.968 33.8961 2.808C34.2961 2.64 34.7281 2.556 35.1921 2.556C35.6001 2.556 35.9801 2.636 36.3321 2.796C36.6841 2.948 36.9881 3.16 37.2441 3.432C37.5081 3.704 37.7081 4.028 37.8441 4.404C37.9881 4.772 38.0561 5.176 38.0481 5.616L38.0361 6.144H32.8881L32.6121 5.16H36.9681L36.7881 5.364V5.076C36.7641 4.812 36.6761 4.576 36.5241 4.368C36.3721 4.16 36.1801 3.996 35.9481 3.876C35.7161 3.756 35.4641 3.696 35.1921 3.696C34.7601 3.696 34.3961 3.78 34.1001 3.948C33.8041 4.108 33.5801 4.348 33.4281 4.668C33.2761 4.98 33.2001 5.368 33.2001 5.832C33.2001 6.272 33.2921 6.656 33.4761 6.984C33.6601 7.304 33.9201 7.552 34.2561 7.728C34.5921 7.904 34.9801 7.992 35.4201 7.992C35.7321 7.992 36.0201 7.94 36.2841 7.836C36.5561 7.732 36.8481 7.544 37.1601 7.272L37.7841 8.148C37.5921 8.34 37.3561 8.508 37.0761 8.652C36.8041 8.796 36.5121 8.912 36.2001 9C35.8961 9.08 35.5961 9.12 35.3001 9.12Z" fill="black"/>
</svg>
